<mxfile host="app.diagrams.net" agent="Mozilla/5.0 (Macintosh; Intel Mac OS X 10_15_7) AppleWebKit/537.36 (KHTML, like Gecko) Chrome/135.0.0.0 Safari/537.36" version="26.2.15">
  <diagram id="C5RBs43oDa-KdzZeNtuy" name="Page-1">
    <mxGraphModel dx="1577" dy="1017" grid="1" gridSize="10" guides="1" tooltips="1" connect="1" arrows="1" fold="1" page="1" pageScale="1" pageWidth="827" pageHeight="1169" math="0" shadow="0">
      <root>
        <mxCell id="WIyWlLk6GJQsqaUBKTNV-0" />
        <mxCell id="WIyWlLk6GJQsqaUBKTNV-1" parent="WIyWlLk6GJQsqaUBKTNV-0" />
        <mxCell id="5uu5aBmncG10JEkU3Hsd-0" value="Android" style="text;html=1;align=center;verticalAlign=middle;whiteSpace=wrap;rounded=0;" vertex="1" parent="WIyWlLk6GJQsqaUBKTNV-1">
          <mxGeometry x="40" y="490" width="60" height="30" as="geometry" />
        </mxCell>
        <mxCell id="5uu5aBmncG10JEkU3Hsd-10" style="edgeStyle=orthogonalEdgeStyle;rounded=0;orthogonalLoop=1;jettySize=auto;html=1;exitX=1;exitY=0.5;exitDx=0;exitDy=0;" edge="1" parent="WIyWlLk6GJQsqaUBKTNV-1" target="5uu5aBmncG10JEkU3Hsd-9">
          <mxGeometry relative="1" as="geometry">
            <mxPoint x="200" y="642.5" as="sourcePoint" />
          </mxGeometry>
        </mxCell>
        <mxCell id="5uu5aBmncG10JEkU3Hsd-3" value="Decode" style="text;html=1;align=center;verticalAlign=middle;whiteSpace=wrap;rounded=0;" vertex="1" parent="WIyWlLk6GJQsqaUBKTNV-1">
          <mxGeometry x="110" y="510" width="60" height="30" as="geometry" />
        </mxCell>
        <mxCell id="5uu5aBmncG10JEkU3Hsd-22" style="edgeStyle=orthogonalEdgeStyle;rounded=0;orthogonalLoop=1;jettySize=auto;html=1;exitX=1;exitY=0.5;exitDx=0;exitDy=0;entryX=0;entryY=0.5;entryDx=0;entryDy=0;" edge="1" parent="WIyWlLk6GJQsqaUBKTNV-1" source="5uu5aBmncG10JEkU3Hsd-9" target="5uu5aBmncG10JEkU3Hsd-21">
          <mxGeometry relative="1" as="geometry" />
        </mxCell>
        <mxCell id="5uu5aBmncG10JEkU3Hsd-58" style="edgeStyle=orthogonalEdgeStyle;rounded=0;orthogonalLoop=1;jettySize=auto;html=1;exitX=0.5;exitY=1;exitDx=0;exitDy=0;entryX=0;entryY=0.5;entryDx=0;entryDy=0;" edge="1" parent="WIyWlLk6GJQsqaUBKTNV-1" source="5uu5aBmncG10JEkU3Hsd-9" target="5uu5aBmncG10JEkU3Hsd-20">
          <mxGeometry relative="1" as="geometry" />
        </mxCell>
        <mxCell id="5uu5aBmncG10JEkU3Hsd-9" value="is hard&amp;nbsp;&lt;div&gt;decode?&lt;/div&gt;" style="rhombus;whiteSpace=wrap;html=1;shadow=0;fontFamily=Helvetica;fontSize=12;align=center;strokeWidth=1;spacing=6;spacingTop=-4;" vertex="1" parent="WIyWlLk6GJQsqaUBKTNV-1">
          <mxGeometry x="290" y="602.5" width="100" height="80" as="geometry" />
        </mxCell>
        <mxCell id="5uu5aBmncG10JEkU3Hsd-19" value="Input" style="text;html=1;align=center;verticalAlign=middle;whiteSpace=wrap;rounded=0;" vertex="1" parent="WIyWlLk6GJQsqaUBKTNV-1">
          <mxGeometry x="130" y="627.5" width="60" height="30" as="geometry" />
        </mxCell>
        <mxCell id="5uu5aBmncG10JEkU3Hsd-62" style="edgeStyle=orthogonalEdgeStyle;rounded=0;orthogonalLoop=1;jettySize=auto;html=1;exitX=0.5;exitY=1;exitDx=0;exitDy=0;entryX=0.5;entryY=0;entryDx=0;entryDy=0;" edge="1" parent="WIyWlLk6GJQsqaUBKTNV-1" source="5uu5aBmncG10JEkU3Hsd-20" target="5uu5aBmncG10JEkU3Hsd-61">
          <mxGeometry relative="1" as="geometry" />
        </mxCell>
        <mxCell id="5uu5aBmncG10JEkU3Hsd-20" value="FFmpeg decode" style="rounded=0;whiteSpace=wrap;html=1;" vertex="1" parent="WIyWlLk6GJQsqaUBKTNV-1">
          <mxGeometry x="660" y="1010" width="120" height="40" as="geometry" />
        </mxCell>
        <mxCell id="5uu5aBmncG10JEkU3Hsd-27" style="edgeStyle=orthogonalEdgeStyle;rounded=0;orthogonalLoop=1;jettySize=auto;html=1;exitX=1;exitY=0.5;exitDx=0;exitDy=0;entryX=0;entryY=0.5;entryDx=0;entryDy=0;" edge="1" parent="WIyWlLk6GJQsqaUBKTNV-1" source="5uu5aBmncG10JEkU3Hsd-21" target="5uu5aBmncG10JEkU3Hsd-26">
          <mxGeometry relative="1" as="geometry" />
        </mxCell>
        <mxCell id="5uu5aBmncG10JEkU3Hsd-21" value="MediaCodec" style="rounded=0;whiteSpace=wrap;html=1;" vertex="1" parent="WIyWlLk6GJQsqaUBKTNV-1">
          <mxGeometry x="470" y="622.5" width="120" height="40" as="geometry" />
        </mxCell>
        <mxCell id="5uu5aBmncG10JEkU3Hsd-23" value="Yes" style="text;html=1;align=center;verticalAlign=middle;whiteSpace=wrap;rounded=0;" vertex="1" parent="WIyWlLk6GJQsqaUBKTNV-1">
          <mxGeometry x="390" y="657.5" width="60" height="30" as="geometry" />
        </mxCell>
        <mxCell id="5uu5aBmncG10JEkU3Hsd-33" style="edgeStyle=orthogonalEdgeStyle;rounded=0;orthogonalLoop=1;jettySize=auto;html=1;exitX=0.5;exitY=1;exitDx=0;exitDy=0;" edge="1" parent="WIyWlLk6GJQsqaUBKTNV-1" source="5uu5aBmncG10JEkU3Hsd-26">
          <mxGeometry relative="1" as="geometry">
            <mxPoint x="720" y="740" as="targetPoint" />
          </mxGeometry>
        </mxCell>
        <mxCell id="5uu5aBmncG10JEkU3Hsd-38" style="edgeStyle=orthogonalEdgeStyle;rounded=0;orthogonalLoop=1;jettySize=auto;html=1;exitX=1;exitY=0.5;exitDx=0;exitDy=0;entryX=0;entryY=0.5;entryDx=0;entryDy=0;" edge="1" parent="WIyWlLk6GJQsqaUBKTNV-1" source="5uu5aBmncG10JEkU3Hsd-26" target="5uu5aBmncG10JEkU3Hsd-37">
          <mxGeometry relative="1" as="geometry" />
        </mxCell>
        <mxCell id="5uu5aBmncG10JEkU3Hsd-26" value="is with&amp;nbsp;&lt;div&gt;surface&lt;span style=&quot;background-color: transparent; color: light-dark(rgb(0, 0, 0), rgb(255, 255, 255));&quot;&gt;?&lt;/span&gt;&lt;/div&gt;" style="rhombus;whiteSpace=wrap;html=1;shadow=0;fontFamily=Helvetica;fontSize=12;align=center;strokeWidth=1;spacing=6;spacingTop=-4;" vertex="1" parent="WIyWlLk6GJQsqaUBKTNV-1">
          <mxGeometry x="670" y="602.5" width="100" height="80" as="geometry" />
        </mxCell>
        <mxCell id="5uu5aBmncG10JEkU3Hsd-34" value="No" style="text;html=1;align=center;verticalAlign=middle;whiteSpace=wrap;rounded=0;" vertex="1" parent="WIyWlLk6GJQsqaUBKTNV-1">
          <mxGeometry x="660" y="687.5" width="60" height="30" as="geometry" />
        </mxCell>
        <mxCell id="5uu5aBmncG10JEkU3Hsd-48" style="edgeStyle=orthogonalEdgeStyle;rounded=0;orthogonalLoop=1;jettySize=auto;html=1;exitX=0.5;exitY=1;exitDx=0;exitDy=0;entryX=0.5;entryY=0;entryDx=0;entryDy=0;" edge="1" parent="WIyWlLk6GJQsqaUBKTNV-1" source="5uu5aBmncG10JEkU3Hsd-35" target="5uu5aBmncG10JEkU3Hsd-47">
          <mxGeometry relative="1" as="geometry" />
        </mxCell>
        <mxCell id="5uu5aBmncG10JEkU3Hsd-35" value="MediaCodec Buffer" style="rounded=0;whiteSpace=wrap;html=1;" vertex="1" parent="WIyWlLk6GJQsqaUBKTNV-1">
          <mxGeometry x="660" y="740" width="120" height="40" as="geometry" />
        </mxCell>
        <mxCell id="5uu5aBmncG10JEkU3Hsd-42" style="edgeStyle=orthogonalEdgeStyle;rounded=0;orthogonalLoop=1;jettySize=auto;html=1;exitX=1;exitY=0.5;exitDx=0;exitDy=0;entryX=0;entryY=0.5;entryDx=0;entryDy=0;" edge="1" parent="WIyWlLk6GJQsqaUBKTNV-1" source="5uu5aBmncG10JEkU3Hsd-37" target="5uu5aBmncG10JEkU3Hsd-41">
          <mxGeometry relative="1" as="geometry" />
        </mxCell>
        <mxCell id="5uu5aBmncG10JEkU3Hsd-37" value="MediaCodec Surface" style="rounded=0;whiteSpace=wrap;html=1;" vertex="1" parent="WIyWlLk6GJQsqaUBKTNV-1">
          <mxGeometry x="840" y="622.5" width="120" height="40" as="geometry" />
        </mxCell>
        <mxCell id="5uu5aBmncG10JEkU3Hsd-39" value="Yes" style="text;html=1;align=center;verticalAlign=middle;whiteSpace=wrap;rounded=0;" vertex="1" parent="WIyWlLk6GJQsqaUBKTNV-1">
          <mxGeometry x="767" y="610" width="60" height="30" as="geometry" />
        </mxCell>
        <mxCell id="5uu5aBmncG10JEkU3Hsd-43" style="edgeStyle=orthogonalEdgeStyle;rounded=0;orthogonalLoop=1;jettySize=auto;html=1;exitX=0.5;exitY=1;exitDx=0;exitDy=0;entryX=0.5;entryY=0;entryDx=0;entryDy=0;strokeColor=#FF0000;strokeWidth=3;" edge="1" parent="WIyWlLk6GJQsqaUBKTNV-1" source="5uu5aBmncG10JEkU3Hsd-41" target="5uu5aBmncG10JEkU3Hsd-35">
          <mxGeometry relative="1" as="geometry" />
        </mxCell>
        <mxCell id="5uu5aBmncG10JEkU3Hsd-46" style="edgeStyle=orthogonalEdgeStyle;rounded=0;orthogonalLoop=1;jettySize=auto;html=1;exitX=1;exitY=0.5;exitDx=0;exitDy=0;entryX=0;entryY=0.5;entryDx=0;entryDy=0;" edge="1" parent="WIyWlLk6GJQsqaUBKTNV-1" source="5uu5aBmncG10JEkU3Hsd-41" target="5uu5aBmncG10JEkU3Hsd-45">
          <mxGeometry relative="1" as="geometry" />
        </mxCell>
        <mxCell id="5uu5aBmncG10JEkU3Hsd-41" value="init?" style="rhombus;whiteSpace=wrap;html=1;shadow=0;fontFamily=Helvetica;fontSize=12;align=center;strokeWidth=1;spacing=6;spacingTop=-4;" vertex="1" parent="WIyWlLk6GJQsqaUBKTNV-1">
          <mxGeometry x="1020" y="602.5" width="100" height="80" as="geometry" />
        </mxCell>
        <mxCell id="5uu5aBmncG10JEkU3Hsd-44" value="No" style="text;html=1;align=center;verticalAlign=middle;whiteSpace=wrap;rounded=0;" vertex="1" parent="WIyWlLk6GJQsqaUBKTNV-1">
          <mxGeometry x="880" y="682.5" width="60" height="30" as="geometry" />
        </mxCell>
        <mxCell id="5uu5aBmncG10JEkU3Hsd-45" value="MediaCodec Surface Decode" style="rounded=0;whiteSpace=wrap;html=1;" vertex="1" parent="WIyWlLk6GJQsqaUBKTNV-1">
          <mxGeometry x="1181" y="622.5" width="219" height="40" as="geometry" />
        </mxCell>
        <mxCell id="5uu5aBmncG10JEkU3Hsd-49" style="edgeStyle=orthogonalEdgeStyle;rounded=0;orthogonalLoop=1;jettySize=auto;html=1;exitX=1;exitY=0.5;exitDx=0;exitDy=0;entryX=0;entryY=0.5;entryDx=0;entryDy=0;" edge="1" parent="WIyWlLk6GJQsqaUBKTNV-1" source="5uu5aBmncG10JEkU3Hsd-47" target="5uu5aBmncG10JEkU3Hsd-50">
          <mxGeometry relative="1" as="geometry">
            <mxPoint x="980" y="860" as="targetPoint" />
          </mxGeometry>
        </mxCell>
        <mxCell id="5uu5aBmncG10JEkU3Hsd-55" style="edgeStyle=orthogonalEdgeStyle;rounded=0;orthogonalLoop=1;jettySize=auto;html=1;exitX=0.5;exitY=1;exitDx=0;exitDy=0;strokeColor=#FF0000;strokeWidth=3;" edge="1" parent="WIyWlLk6GJQsqaUBKTNV-1" source="5uu5aBmncG10JEkU3Hsd-47" target="5uu5aBmncG10JEkU3Hsd-20">
          <mxGeometry relative="1" as="geometry" />
        </mxCell>
        <mxCell id="5uu5aBmncG10JEkU3Hsd-47" value="&lt;div&gt;&lt;span style=&quot;background-color: transparent; color: light-dark(rgb(0, 0, 0), rgb(255, 255, 255));&quot;&gt;init?&lt;/span&gt;&lt;/div&gt;" style="rhombus;whiteSpace=wrap;html=1;shadow=0;fontFamily=Helvetica;fontSize=12;align=center;strokeWidth=1;spacing=6;spacingTop=-4;" vertex="1" parent="WIyWlLk6GJQsqaUBKTNV-1">
          <mxGeometry x="670" y="820" width="100" height="80" as="geometry" />
        </mxCell>
        <mxCell id="5uu5aBmncG10JEkU3Hsd-50" value="MediaCodec Buffer Decode" style="rounded=0;whiteSpace=wrap;html=1;" vertex="1" parent="WIyWlLk6GJQsqaUBKTNV-1">
          <mxGeometry x="1181" y="840" width="219" height="40" as="geometry" />
        </mxCell>
        <mxCell id="5uu5aBmncG10JEkU3Hsd-51" value="Yes" style="text;html=1;align=center;verticalAlign=middle;whiteSpace=wrap;rounded=0;" vertex="1" parent="WIyWlLk6GJQsqaUBKTNV-1">
          <mxGeometry x="840" y="830" width="60" height="30" as="geometry" />
        </mxCell>
        <mxCell id="5uu5aBmncG10JEkU3Hsd-52" value="Yes" style="text;html=1;align=center;verticalAlign=middle;whiteSpace=wrap;rounded=0;" vertex="1" parent="WIyWlLk6GJQsqaUBKTNV-1">
          <mxGeometry x="1110" y="610" width="60" height="30" as="geometry" />
        </mxCell>
        <mxCell id="5uu5aBmncG10JEkU3Hsd-57" value="No" style="text;html=1;align=center;verticalAlign=middle;whiteSpace=wrap;rounded=0;" vertex="1" parent="WIyWlLk6GJQsqaUBKTNV-1">
          <mxGeometry x="720" y="930" width="60" height="30" as="geometry" />
        </mxCell>
        <mxCell id="5uu5aBmncG10JEkU3Hsd-59" value="No" style="text;html=1;align=center;verticalAlign=middle;whiteSpace=wrap;rounded=0;" vertex="1" parent="WIyWlLk6GJQsqaUBKTNV-1">
          <mxGeometry x="340" y="850" width="60" height="30" as="geometry" />
        </mxCell>
        <mxCell id="5uu5aBmncG10JEkU3Hsd-64" style="edgeStyle=orthogonalEdgeStyle;rounded=0;orthogonalLoop=1;jettySize=auto;html=1;exitX=1;exitY=0.5;exitDx=0;exitDy=0;entryX=0;entryY=0.5;entryDx=0;entryDy=0;" edge="1" parent="WIyWlLk6GJQsqaUBKTNV-1" source="5uu5aBmncG10JEkU3Hsd-61" target="5uu5aBmncG10JEkU3Hsd-63">
          <mxGeometry relative="1" as="geometry" />
        </mxCell>
        <mxCell id="5uu5aBmncG10JEkU3Hsd-65" style="edgeStyle=orthogonalEdgeStyle;rounded=0;orthogonalLoop=1;jettySize=auto;html=1;exitX=0.5;exitY=1;exitDx=0;exitDy=0;" edge="1" parent="WIyWlLk6GJQsqaUBKTNV-1" source="5uu5aBmncG10JEkU3Hsd-61">
          <mxGeometry relative="1" as="geometry">
            <mxPoint x="720" y="1240" as="targetPoint" />
          </mxGeometry>
        </mxCell>
        <mxCell id="5uu5aBmncG10JEkU3Hsd-61" value="&lt;div&gt;&lt;span style=&quot;background-color: transparent; color: light-dark(rgb(0, 0, 0), rgb(255, 255, 255));&quot;&gt;init?&lt;/span&gt;&lt;/div&gt;" style="rhombus;whiteSpace=wrap;html=1;shadow=0;fontFamily=Helvetica;fontSize=12;align=center;strokeWidth=1;spacing=6;spacingTop=-4;" vertex="1" parent="WIyWlLk6GJQsqaUBKTNV-1">
          <mxGeometry x="670" y="1100" width="100" height="80" as="geometry" />
        </mxCell>
        <mxCell id="5uu5aBmncG10JEkU3Hsd-63" value="FFmpeg soft decode" style="rounded=0;whiteSpace=wrap;html=1;" vertex="1" parent="WIyWlLk6GJQsqaUBKTNV-1">
          <mxGeometry x="1181" y="1120" width="219" height="40" as="geometry" />
        </mxCell>
        <mxCell id="5uu5aBmncG10JEkU3Hsd-66" value="Yes" style="text;html=1;align=center;verticalAlign=middle;whiteSpace=wrap;rounded=0;" vertex="1" parent="WIyWlLk6GJQsqaUBKTNV-1">
          <mxGeometry x="840" y="1100" width="60" height="30" as="geometry" />
        </mxCell>
        <mxCell id="5uu5aBmncG10JEkU3Hsd-67" value="No" style="text;html=1;align=center;verticalAlign=middle;whiteSpace=wrap;rounded=0;" vertex="1" parent="WIyWlLk6GJQsqaUBKTNV-1">
          <mxGeometry x="720" y="1190" width="60" height="30" as="geometry" />
        </mxCell>
        <mxCell id="5uu5aBmncG10JEkU3Hsd-68" value="Decode Failed" style="rounded=0;whiteSpace=wrap;html=1;" vertex="1" parent="WIyWlLk6GJQsqaUBKTNV-1">
          <mxGeometry x="660" y="1240" width="120" height="40" as="geometry" />
        </mxCell>
        <mxCell id="5uu5aBmncG10JEkU3Hsd-69" value="" style="shape=singleArrow;direction=south;whiteSpace=wrap;html=1;" vertex="1" parent="WIyWlLk6GJQsqaUBKTNV-1">
          <mxGeometry x="1250" y="710" width="60" height="100" as="geometry" />
        </mxCell>
        <mxCell id="5uu5aBmncG10JEkU3Hsd-70" value="" style="shape=singleArrow;direction=south;whiteSpace=wrap;html=1;" vertex="1" parent="WIyWlLk6GJQsqaUBKTNV-1">
          <mxGeometry x="1250" y="960" width="60" height="100" as="geometry" />
        </mxCell>
        <mxCell id="5uu5aBmncG10JEkU3Hsd-71" value="Degrade" style="text;html=1;align=center;verticalAlign=middle;whiteSpace=wrap;rounded=0;" vertex="1" parent="WIyWlLk6GJQsqaUBKTNV-1">
          <mxGeometry x="1330" y="740" width="110" height="30" as="geometry" />
        </mxCell>
        <mxCell id="5uu5aBmncG10JEkU3Hsd-72" value="Degrade" style="text;html=1;align=center;verticalAlign=middle;whiteSpace=wrap;rounded=0;" vertex="1" parent="WIyWlLk6GJQsqaUBKTNV-1">
          <mxGeometry x="1330" y="995" width="110" height="30" as="geometry" />
        </mxCell>
      </root>
    </mxGraphModel>
  </diagram>
</mxfile>
